<mxfile host="app.diagrams.net" agent="Mozilla/5.0 (Windows NT 10.0; Win64; x64) AppleWebKit/537.36 (KHTML, like Gecko) Chrome/136.0.0.0 Safari/537.36" version="27.0.6">
  <diagram name="Página-1" id="fgthK6nCLFAKXQFVDMko">
    <mxGraphModel dx="924" dy="562" grid="1" gridSize="10" guides="1" tooltips="1" connect="1" arrows="1" fold="1" page="1" pageScale="1" pageWidth="827" pageHeight="1169" math="0" shadow="0">
      <root>
        <mxCell id="0" />
        <mxCell id="1" parent="0" />
        <mxCell id="B2jILJhdWrx1jrn46OUm-2" style="edgeStyle=orthogonalEdgeStyle;rounded=0;orthogonalLoop=1;jettySize=auto;html=1;entryX=0.5;entryY=0;entryDx=0;entryDy=0;" edge="1" parent="1" source="B2jILJhdWrx1jrn46OUm-1" target="B2jILJhdWrx1jrn46OUm-3">
          <mxGeometry relative="1" as="geometry">
            <mxPoint x="414" y="210" as="targetPoint" />
          </mxGeometry>
        </mxCell>
        <mxCell id="B2jILJhdWrx1jrn46OUm-1" value="" style="ellipse;fillColor=strokeColor;html=1;" vertex="1" parent="1">
          <mxGeometry x="405" y="90" width="30" height="30" as="geometry" />
        </mxCell>
        <mxCell id="B2jILJhdWrx1jrn46OUm-7" style="edgeStyle=orthogonalEdgeStyle;rounded=0;orthogonalLoop=1;jettySize=auto;html=1;exitX=1;exitY=0.5;exitDx=0;exitDy=0;entryX=0.5;entryY=0;entryDx=0;entryDy=0;" edge="1" parent="1" source="B2jILJhdWrx1jrn46OUm-3" target="B2jILJhdWrx1jrn46OUm-6">
          <mxGeometry relative="1" as="geometry" />
        </mxCell>
        <mxCell id="B2jILJhdWrx1jrn46OUm-3" value="disponivel" style="shape=process2;fixedSize=1;size=5;fontStyle=1;html=1;whiteSpace=wrap;" vertex="1" parent="1">
          <mxGeometry x="350" y="200" width="140" height="40" as="geometry" />
        </mxCell>
        <mxCell id="B2jILJhdWrx1jrn46OUm-11" style="edgeStyle=orthogonalEdgeStyle;rounded=0;orthogonalLoop=1;jettySize=auto;html=1;entryX=0.5;entryY=0;entryDx=0;entryDy=0;" edge="1" parent="1" source="B2jILJhdWrx1jrn46OUm-4" target="B2jILJhdWrx1jrn46OUm-10">
          <mxGeometry relative="1" as="geometry" />
        </mxCell>
        <mxCell id="B2jILJhdWrx1jrn46OUm-4" value="baixo estoque" style="shape=process2;fixedSize=1;size=5;fontStyle=1;html=1;whiteSpace=wrap;" vertex="1" parent="1">
          <mxGeometry x="180" y="380" width="140" height="40" as="geometry" />
        </mxCell>
        <mxCell id="B2jILJhdWrx1jrn46OUm-5" style="edgeStyle=orthogonalEdgeStyle;rounded=0;orthogonalLoop=1;jettySize=auto;html=1;entryX=0.454;entryY=-0.055;entryDx=0;entryDy=0;entryPerimeter=0;" edge="1" parent="1" source="B2jILJhdWrx1jrn46OUm-3" target="B2jILJhdWrx1jrn46OUm-4">
          <mxGeometry relative="1" as="geometry" />
        </mxCell>
        <mxCell id="B2jILJhdWrx1jrn46OUm-6" value="vencido" style="shape=process2;fixedSize=1;size=5;fontStyle=1;html=1;whiteSpace=wrap;" vertex="1" parent="1">
          <mxGeometry x="520" y="380" width="140" height="40" as="geometry" />
        </mxCell>
        <mxCell id="B2jILJhdWrx1jrn46OUm-8" value="qtde &amp;lt; mínimo" style="text;html=1;align=center;verticalAlign=middle;resizable=0;points=[];autosize=1;strokeColor=none;fillColor=none;" vertex="1" parent="1">
          <mxGeometry x="140" y="278" width="100" height="30" as="geometry" />
        </mxCell>
        <mxCell id="B2jILJhdWrx1jrn46OUm-9" value="data &amp;gt; validade" style="text;html=1;align=center;verticalAlign=middle;resizable=0;points=[];autosize=1;strokeColor=none;fillColor=none;" vertex="1" parent="1">
          <mxGeometry x="590" y="270" width="110" height="30" as="geometry" />
        </mxCell>
        <mxCell id="B2jILJhdWrx1jrn46OUm-16" style="edgeStyle=orthogonalEdgeStyle;rounded=0;orthogonalLoop=1;jettySize=auto;html=1;exitX=0;exitY=0.5;exitDx=0;exitDy=0;entryX=0;entryY=0.25;entryDx=0;entryDy=0;" edge="1" parent="1" source="B2jILJhdWrx1jrn46OUm-10" target="B2jILJhdWrx1jrn46OUm-3">
          <mxGeometry relative="1" as="geometry">
            <Array as="points">
              <mxPoint x="30" y="210" />
            </Array>
          </mxGeometry>
        </mxCell>
        <mxCell id="B2jILJhdWrx1jrn46OUm-10" value="Esgotado" style="shape=process2;fixedSize=1;size=5;fontStyle=1;html=1;whiteSpace=wrap;" vertex="1" parent="1">
          <mxGeometry x="30" y="560" width="140" height="40" as="geometry" />
        </mxCell>
        <mxCell id="B2jILJhdWrx1jrn46OUm-14" value="qtde = 0" style="text;html=1;align=center;verticalAlign=middle;resizable=0;points=[];autosize=1;strokeColor=none;fillColor=none;" vertex="1" parent="1">
          <mxGeometry x="100" y="480" width="70" height="30" as="geometry" />
        </mxCell>
        <mxCell id="B2jILJhdWrx1jrn46OUm-17" value="&amp;nbsp;repor estoque" style="text;html=1;align=center;verticalAlign=middle;resizable=0;points=[];autosize=1;strokeColor=none;fillColor=none;" vertex="1" parent="1">
          <mxGeometry x="15" y="340" width="100" height="30" as="geometry" />
        </mxCell>
        <mxCell id="B2jILJhdWrx1jrn46OUm-19" value="" style="edgeStyle=orthogonalEdgeStyle;rounded=0;orthogonalLoop=1;jettySize=auto;html=1;entryX=0.5;entryY=1;entryDx=0;entryDy=0;" edge="1" parent="1" source="B2jILJhdWrx1jrn46OUm-4" target="B2jILJhdWrx1jrn46OUm-3">
          <mxGeometry relative="1" as="geometry">
            <mxPoint x="320" y="400" as="sourcePoint" />
            <mxPoint x="420" y="340" as="targetPoint" />
          </mxGeometry>
        </mxCell>
        <mxCell id="B2jILJhdWrx1jrn46OUm-20" value="repor estoque" style="text;html=1;align=center;verticalAlign=middle;resizable=0;points=[];autosize=1;strokeColor=none;fillColor=none;" vertex="1" parent="1">
          <mxGeometry x="320" y="350" width="100" height="30" as="geometry" />
        </mxCell>
      </root>
    </mxGraphModel>
  </diagram>
</mxfile>
